<mxfile host="app.diagrams.net" modified="2021-08-22T23:09:51.233Z" agent="5.0 (Macintosh; Intel Mac OS X 10_15_7) AppleWebKit/537.36 (KHTML, like Gecko) Chrome/92.0.4515.131 Safari/537.36" etag="UOn1BOTOeQssQrApnIop" version="14.9.8" type="github">
  <diagram id="C5RBs43oDa-KdzZeNtuy" name="Page-1">
    <mxGraphModel dx="531" dy="561" grid="1" gridSize="10" guides="1" tooltips="1" connect="1" arrows="1" fold="1" page="1" pageScale="1" pageWidth="827" pageHeight="1169" math="0" shadow="0">
      <root>
        <mxCell id="WIyWlLk6GJQsqaUBKTNV-0" />
        <mxCell id="WIyWlLk6GJQsqaUBKTNV-1" parent="WIyWlLk6GJQsqaUBKTNV-0" />
        <mxCell id="QseeHibgwzv1g3uFr56u-5" style="edgeStyle=orthogonalEdgeStyle;rounded=0;orthogonalLoop=1;jettySize=auto;html=1;exitX=0.5;exitY=1;exitDx=0;exitDy=0;entryX=0.5;entryY=0;entryDx=0;entryDy=0;" edge="1" parent="WIyWlLk6GJQsqaUBKTNV-1" source="QseeHibgwzv1g3uFr56u-0" target="QseeHibgwzv1g3uFr56u-1">
          <mxGeometry relative="1" as="geometry" />
        </mxCell>
        <mxCell id="QseeHibgwzv1g3uFr56u-6" style="edgeStyle=orthogonalEdgeStyle;rounded=0;orthogonalLoop=1;jettySize=auto;html=1;exitX=0.5;exitY=1;exitDx=0;exitDy=0;entryX=0.5;entryY=0;entryDx=0;entryDy=0;" edge="1" parent="WIyWlLk6GJQsqaUBKTNV-1" source="QseeHibgwzv1g3uFr56u-0" target="QseeHibgwzv1g3uFr56u-2">
          <mxGeometry relative="1" as="geometry" />
        </mxCell>
        <mxCell id="QseeHibgwzv1g3uFr56u-13" value="items" style="edgeLabel;html=1;align=center;verticalAlign=middle;resizable=0;points=[];" vertex="1" connectable="0" parent="QseeHibgwzv1g3uFr56u-6">
          <mxGeometry x="0.0611" y="-2" relative="1" as="geometry">
            <mxPoint x="-13" y="-2" as="offset" />
          </mxGeometry>
        </mxCell>
        <mxCell id="QseeHibgwzv1g3uFr56u-0" value="App.js" style="rounded=0;whiteSpace=wrap;html=1;fillColor=#ffe6cc;strokeColor=#d79b00;fontColor=#4D4D4D;" vertex="1" parent="WIyWlLk6GJQsqaUBKTNV-1">
          <mxGeometry x="200" y="40" width="120" height="40" as="geometry" />
        </mxCell>
        <mxCell id="QseeHibgwzv1g3uFr56u-7" style="edgeStyle=orthogonalEdgeStyle;rounded=0;orthogonalLoop=1;jettySize=auto;html=1;exitX=0.5;exitY=1;exitDx=0;exitDy=0;" edge="1" parent="WIyWlLk6GJQsqaUBKTNV-1" source="QseeHibgwzv1g3uFr56u-1" target="QseeHibgwzv1g3uFr56u-3">
          <mxGeometry relative="1" as="geometry" />
        </mxCell>
        <mxCell id="QseeHibgwzv1g3uFr56u-9" style="edgeStyle=orthogonalEdgeStyle;rounded=0;orthogonalLoop=1;jettySize=auto;html=1;exitX=0;exitY=0.5;exitDx=0;exitDy=0;entryX=0;entryY=0.5;entryDx=0;entryDy=0;dashed=1;fillColor=#ffe6cc;strokeColor=#d79b00;" edge="1" parent="WIyWlLk6GJQsqaUBKTNV-1" source="QseeHibgwzv1g3uFr56u-1" target="QseeHibgwzv1g3uFr56u-0">
          <mxGeometry relative="1" as="geometry" />
        </mxCell>
        <mxCell id="QseeHibgwzv1g3uFr56u-10" value="onAddGoal" style="edgeLabel;html=1;align=center;verticalAlign=middle;resizable=0;points=[];fontColor=#FFB570;" vertex="1" connectable="0" parent="QseeHibgwzv1g3uFr56u-9">
          <mxGeometry x="0.19" y="-1" relative="1" as="geometry">
            <mxPoint x="21" y="-1" as="offset" />
          </mxGeometry>
        </mxCell>
        <mxCell id="QseeHibgwzv1g3uFr56u-1" value="CourseInput" style="rounded=0;whiteSpace=wrap;html=1;fillColor=#ffe6cc;strokeColor=#d79b00;fontColor=#4D4D4D;" vertex="1" parent="WIyWlLk6GJQsqaUBKTNV-1">
          <mxGeometry x="120" y="120" width="120" height="40" as="geometry" />
        </mxCell>
        <mxCell id="QseeHibgwzv1g3uFr56u-8" style="edgeStyle=orthogonalEdgeStyle;rounded=0;orthogonalLoop=1;jettySize=auto;html=1;exitX=0.5;exitY=1;exitDx=0;exitDy=0;" edge="1" parent="WIyWlLk6GJQsqaUBKTNV-1" source="QseeHibgwzv1g3uFr56u-2" target="QseeHibgwzv1g3uFr56u-4">
          <mxGeometry relative="1" as="geometry" />
        </mxCell>
        <mxCell id="QseeHibgwzv1g3uFr56u-14" value="key, id, onDelete, goal.text&amp;nbsp;" style="edgeLabel;html=1;align=center;verticalAlign=middle;resizable=0;points=[];" vertex="1" connectable="0" parent="QseeHibgwzv1g3uFr56u-8">
          <mxGeometry x="-0.2833" y="-2" relative="1" as="geometry">
            <mxPoint as="offset" />
          </mxGeometry>
        </mxCell>
        <mxCell id="QseeHibgwzv1g3uFr56u-11" style="edgeStyle=orthogonalEdgeStyle;rounded=0;orthogonalLoop=1;jettySize=auto;html=1;exitX=1;exitY=0.5;exitDx=0;exitDy=0;entryX=1;entryY=0.5;entryDx=0;entryDy=0;dashed=1;fillColor=#ffe6cc;strokeColor=#d79b00;" edge="1" parent="WIyWlLk6GJQsqaUBKTNV-1" source="QseeHibgwzv1g3uFr56u-2" target="QseeHibgwzv1g3uFr56u-0">
          <mxGeometry relative="1" as="geometry">
            <Array as="points">
              <mxPoint x="400" y="120" />
              <mxPoint x="420" y="120" />
              <mxPoint x="420" y="60" />
            </Array>
          </mxGeometry>
        </mxCell>
        <mxCell id="QseeHibgwzv1g3uFr56u-12" value="onDeleteItem" style="edgeLabel;html=1;align=center;verticalAlign=middle;resizable=0;points=[];fontColor=#FFB570;" vertex="1" connectable="0" parent="QseeHibgwzv1g3uFr56u-11">
          <mxGeometry x="0.41" relative="1" as="geometry">
            <mxPoint as="offset" />
          </mxGeometry>
        </mxCell>
        <mxCell id="QseeHibgwzv1g3uFr56u-2" value="CourseGoalList" style="rounded=0;whiteSpace=wrap;html=1;fillColor=#ffe6cc;strokeColor=#d79b00;fontColor=#4D4D4D;" vertex="1" parent="WIyWlLk6GJQsqaUBKTNV-1">
          <mxGeometry x="280" y="120" width="120" height="40" as="geometry" />
        </mxCell>
        <mxCell id="QseeHibgwzv1g3uFr56u-3" value="Button" style="rounded=0;whiteSpace=wrap;html=1;fillColor=#ffe6cc;strokeColor=#d79b00;fontColor=#4D4D4D;" vertex="1" parent="WIyWlLk6GJQsqaUBKTNV-1">
          <mxGeometry x="120" y="200" width="120" height="40" as="geometry" />
        </mxCell>
        <mxCell id="QseeHibgwzv1g3uFr56u-15" style="edgeStyle=orthogonalEdgeStyle;rounded=0;orthogonalLoop=1;jettySize=auto;html=1;exitX=1;exitY=0.5;exitDx=0;exitDy=0;entryX=1;entryY=1;entryDx=0;entryDy=0;dashed=1;fillColor=#ffe6cc;strokeColor=#d79b00;" edge="1" parent="WIyWlLk6GJQsqaUBKTNV-1" source="QseeHibgwzv1g3uFr56u-4" target="QseeHibgwzv1g3uFr56u-2">
          <mxGeometry relative="1" as="geometry">
            <Array as="points">
              <mxPoint x="420" y="220" />
              <mxPoint x="420" y="160" />
            </Array>
          </mxGeometry>
        </mxCell>
        <mxCell id="QseeHibgwzv1g3uFr56u-16" value="onDelete" style="edgeLabel;html=1;align=center;verticalAlign=middle;resizable=0;points=[];fontColor=#FFB570;" vertex="1" connectable="0" parent="QseeHibgwzv1g3uFr56u-15">
          <mxGeometry x="0.0467" y="1" relative="1" as="geometry">
            <mxPoint y="3" as="offset" />
          </mxGeometry>
        </mxCell>
        <mxCell id="QseeHibgwzv1g3uFr56u-4" value="CourseGoalItem" style="rounded=0;whiteSpace=wrap;html=1;fillColor=#ffe6cc;strokeColor=#d79b00;fontColor=#4D4D4D;" vertex="1" parent="WIyWlLk6GJQsqaUBKTNV-1">
          <mxGeometry x="280" y="200" width="120" height="40" as="geometry" />
        </mxCell>
      </root>
    </mxGraphModel>
  </diagram>
</mxfile>
